# xmcd
#
# Track frame offsets: 
#        150
#        18541
#        37496
#        55580
#        72256
#        91910
#        107866
#        124417
#        141477
#        159981
#        179032
#
# Disc length: 2726 seconds
#
# Revision: 1
# Processed by: cddbd v1.5.2PL0 Copyright (c) Steve Scherf et al.
# Submitted via: ExactAudioCopy v0.99pb5
#
DISCID=a50aa40b
DTITLE=Calambuco - Rompiendo el cuero
DYEAR=2009
DGENRE=Salsa
TTITLE0=No estás en ná
TTITLE1=Rompiendo el cuero
TTITLE2=Don marcelino
TTITLE3=El que se enamora pierde
TTITLE4=Ok, lo que sea
TTITLE5=Sabroso
TTITLE6=Si me mirara
TTITLE7=Bongó
TTITLE8=Olvida esa pena
TTITLE9=El color de tu mirada
TTITLE10=Guarachando
EXTD=YEAR: 2009
EXTT0=
EXTT1=
EXTT2=
EXTT3=
EXTT4=
EXTT5=
EXTT6=
EXTT7=
EXTT8=
EXTT9=
EXTT10=
PLAYORDER=
